<?xml version="1.0" encoding="UTF-8"?>
<svg id="Ebene_1" xmlns="http://www.w3.org/2000/svg" version="1.1" viewBox="0 0 288 288">
  <!-- Generator: Adobe Illustrator 30.0.0, SVG Export Plug-In . SVG Version: 2.1.1 Build 123)  -->
  <path d="M42.14,142.32l-.29-.29c-.29,1.17-.47,2.35-.51,3.52-.05,1.17-.1,2.37-.15,3.6,0,.39-.01,1.05-.04,1.98-.03.93-.06,1.92-.11,2.97-.05,1.05-.09,2.05-.11,3.01-.03.95-.04,1.6-.04,1.94-.15.59-.47,1.1-.95,1.54-.49.44-1.05.66-1.69.66-.25,0-.55-.04-.92-.11s-.73-.17-1.1-.29c-.37-.12-.71-.28-1.03-.48-.32-.19-.5-.42-.55-.66l-4.62-16.22-3.38-13.28s-.15-.22-.29-.51-.29-.62-.44-.99-.28-.72-.4-1.06c-.12-.34-.18-.61-.18-.81,0-.68.33-1.23.99-1.65.66-.42,1.26-.62,1.8-.62,1.81,0,2.96.76,3.45,2.27l4.04,14.6c.24-.1.4-.37.48-.81s.11-.71.11-.81c0-.05.04-.29.11-.73s.21-1.21.4-2.31c.19-1.1.48-2.61.84-4.51s.87-4.35,1.5-7.34c.39-.49.86-.82,1.39-.99.54-.17,1.15-.26,1.83-.26.64,0,1.14.1,1.5.29.37.2.62.64.77,1.32l4.99,20.99c.1.25.19.51.29.81.1.29.19.56.29.81.19-1.61.37-3.04.51-4.29.15-1.25.29-2.47.44-3.67.15-1.2.29-2.47.44-3.82.15-1.34.34-2.9.59-4.66.24-1.76.54-3.84.88-6.24.34-2.4.76-5.26,1.25-8.59.15-.98.57-1.59,1.28-1.83.71-.24,1.5-.37,2.38-.37.05,0,.16.04.33.11.17.07.28.14.33.18.1.05.29.1.59.15.29.05.49.1.59.15.19.44.37.82.51,1.14.15.32.22.67.22,1.06-.1-.49-.27-.27-.51.66-.25.93-.55,2.45-.92,4.55-.37,2.1-.76,4.71-1.17,7.82-.42,3.11-.82,6.6-1.21,10.49-.39,3.89-.75,8.1-1.06,12.62-.32,4.53-.58,9.21-.77,14.05-.15,0-.39-.02-.73-.07-.34-.05-.7-.12-1.06-.22-.37-.1-.7-.22-.99-.37s-.49-.34-.59-.59l-9.32-23.85Z"/>
  <path d="M71.86,148.56h-.22c0,2.01.04,3.98.11,5.91.07,1.93.11,3.93.11,5.98,0,.59-.01,1.16-.04,1.72-.03.56-.11,1.08-.26,1.54-.15.47-.4.83-.77,1.1-.37.27-.92.4-1.65.4-1.37,0-2.32-.71-2.86-2.13-.25-2.3-.39-4.56-.44-6.79-.05-2.23-.2-4.51-.44-6.86-.1-.68-.38-1.34-.84-1.98-.47-.64-.7-1.25-.7-1.83,0-.44.16-.81.48-1.1.32-.29.48-.71.48-1.25,0-3.82-.11-7.59-.33-11.34s-.33-7.5-.33-11.26v-1.25c.34-.49.68-.78,1.03-.88.34-.1.81-.15,1.39-.15,1.42,0,2.32.43,2.72,1.28.39.86.61,1.9.66,3.12l.66,19.52c.05.15.13.38.26.7.12.32.31.48.55.48.34,0,.98-.08,1.91-.26.93-.17,1.91-.37,2.94-.59s1.96-.46,2.79-.73c.83-.27,1.32-.53,1.47-.77,0-.34.01-.95.04-1.83.02-.88.04-1.49.04-1.83,0-2.05-.03-4.08-.07-6.09-.05-2.01-.15-4.04-.29-6.09,0-.34-.07-1.16-.22-2.46-.15-1.3-.29-2.7-.44-4.22-.15-1.52-.28-2.92-.4-4.22-.12-1.3-.18-2.12-.18-2.46-.05-.05-.07-.21-.07-.48v-.55c0-.64.23-1.1.7-1.39.46-.29.97-.44,1.5-.44,1.17,0,2.04.37,2.61,1.1.56.73.97,1.64,1.21,2.72.05.54.12,1.44.22,2.72.1,1.27.22,2.64.37,4.11s.28,2.85.4,4.15c.12,1.3.21,2.19.26,2.68v1.17c0,.25.04.72.11,1.43.07.71.13,1.19.18,1.43v30.09c.24.83.4,1.52.48,2.05.07.54.11,1.17.11,1.91,0,.59-.16,1.21-.48,1.87-.32.66-.87.99-1.65.99-.69,0-1.31-.17-1.87-.51-.56-.34-1.05-.78-1.47-1.32-.42-.54-.75-1.14-.99-1.8-.25-.66-.37-1.33-.37-2.02v-15.12l-8.37,1.83Z"/>
  <path d="M105.76,167.86c.05-.25.11-.71.18-1.39.07-.68.17-1.41.29-2.16.12-.76.23-1.47.33-2.13.1-.66.17-1.14.22-1.43.24-2.2.55-4.39.92-6.57.37-2.18.55-4.37.55-6.57v-1.1l-1.17-.59c-.2-.1-.69-.42-1.47-.95-.78-.54-1.65-1.15-2.61-1.83-.95-.68-1.9-1.38-2.83-2.09-.93-.71-1.64-1.28-2.13-1.72-.29-.19-.77-.57-1.43-1.14-.66-.56-1.35-1.17-2.05-1.83-.71-.66-1.38-1.3-2.02-1.91-.64-.61-1.08-1.04-1.32-1.28-.39-.39-.76-.84-1.1-1.36-.34-.51-.51-1.04-.51-1.58,0-.83.32-1.43.95-1.8.64-.37,1.32-.55,2.05-.55.49,0,1,.06,1.54.18.54.12,1,.38,1.39.77,1.86,2.05,3.94,4.11,6.24,6.16,2.3,2.05,4.65,3.82,7.04,5.28l.29-.95,3.08-19.81c.1-.54.4-.88.92-1.03s.99-.22,1.43-.22c1.27,0,2.24.31,2.9.92.66.61.99,1.63.99,3.05v.15s-.04.17-.11.37c-.07.2-.15.42-.22.66-.07.25-.14.48-.18.7-.05.22-.07.36-.07.4-.15.59-.34,1.72-.59,3.41-.25,1.69-.51,3.69-.81,6.02-.29,2.32-.61,4.88-.95,7.67-.34,2.79-.69,5.59-1.03,8.4-.34,2.81-.69,5.53-1.03,8.15-.34,2.62-.66,4.93-.95,6.93.05.49.08,1.05.11,1.69.02.64-.06,1.25-.26,1.83-.2.59-.5,1.08-.92,1.47-.42.39-.99.59-1.72.59-.93,0-1.75-.25-2.46-.73-.71-.49-1.21-1.17-1.5-2.05Z"/>
  <path d="M152.07,158.25c0-2.98.06-5.98.18-8.99.12-3.01.26-6.02.4-9.03.15-3.01.26-6.02.33-9.03s.06-6-.04-8.99c.15-.54.42-.94.81-1.21.39-.27.86-.4,1.39-.4,1.03,0,1.81.18,2.35.55.54.37.93.87,1.17,1.5.24.64.39,1.35.44,2.13.05.78.1,1.57.15,2.35.59,1.08,1.28,2.12,2.09,3.12.81,1,1.53,2.02,2.17,3.05,0,.05.04.16.11.33.07.17.13.26.18.26.29.44.67,1.02,1.14,1.72.46.71.92,1.39,1.36,2.05s.98,1.48,1.61,2.46l.29.37,4.26,6.16c.19.2.37.29.51.29h.15c-.64-5.18-1.15-10.48-1.54-15.89-.39-5.41-.59-10.75-.59-16.03v-3.67c.39-.64,1.05-.95,1.98-.95s1.61.22,2.05.66.73.99.88,1.65.22,1.37.22,2.13.02,1.46.07,2.09c0,.05.02.14.07.26.05.12.11.39.18.81.07.42.15,1.05.22,1.91.07.86.17,2.04.29,3.56.12,1.52.24,3.42.37,5.72.12,2.3.28,5.11.48,8.44v1.32l2.49,16.36c.05.39.26.99.62,1.8s.55,1.43.55,1.87c0,1.03-.29,1.86-.88,2.49-.59.64-1.42.95-2.49.95-.15,0-.34-.06-.59-.18-.25-.12-.49-.26-.73-.4-.25-.15-.48-.3-.7-.48-.22-.17-.38-.31-.48-.4l-11.81-16.8s-.1-.08-.15-.26c-.05-.17-.1-.31-.15-.4-.29-.44-.69-.99-1.17-1.65-.49-.66-.95-1.32-1.39-1.98s-.83-1.23-1.17-1.72c-.34-.49-.51-.76-.51-.81l-.37-.29c-.25,4.65-.44,9.33-.59,14.05-.15,4.72-.15,9.43,0,14.13-.1.59-.4,1.1-.92,1.54s-1.04.66-1.58.66c-.98,0-1.75-.26-2.31-.77-.56-.51-1.04-1.19-1.43-2.02v-6.38Z"/>
  <path d="M184.65,154.43c.05-.29.05-1.08,0-2.35-.05-1.27-.06-2.85-.04-4.73.02-1.88.07-3.95.15-6.2.07-2.25.24-4.52.51-6.82.27-2.3.66-4.51,1.17-6.64s1.19-3.97,2.02-5.54c.29-1.32,1-2.24,2.13-2.75,1.12-.51,2.72-.82,4.77-.92,1.32,0,2.45.34,3.38,1.03.93.69,1.72,1.53,2.38,2.53.66,1,1.23,2.09,1.72,3.27.49,1.17.93,2.23,1.32,3.16v.37c.34.98.6,2.43.77,4.37.17,1.93.29,3.96.37,6.09.07,2.13.11,4.17.11,6.13v4.48c0,1.47-.2,3.22-.59,5.25-.39,2.03-1.02,3.95-1.87,5.76-.86,1.81-1.97,3.35-3.34,4.62-1.37,1.27-3.01,1.91-4.92,1.91-1.61,0-3.04-.42-4.29-1.25-1.25-.83-2.3-1.9-3.16-3.19-.86-1.3-1.5-2.7-1.94-4.22-.44-1.52-.66-2.96-.66-4.33ZM191.76,159.35c.1.54.38,1.09.84,1.65.46.56,1.01.84,1.65.84h.59c2.05-1.86,3.4-4,4.04-6.42.64-2.42.95-4.98.95-7.67,0-.64-.03-1.61-.07-2.94-.05-1.32-.14-2.8-.26-4.44-.12-1.64-.28-3.36-.48-5.17-.2-1.81-.44-3.51-.73-5.1-.29-1.59-.64-2.97-1.03-4.15-.39-1.17-.86-1.98-1.39-2.42-.05.05-.11.15-.18.29-.07.15-.11.25-.11.29-1.03,1.27-1.96,3.01-2.79,5.21-.83,2.2-1.46,4.81-1.87,7.82-.42,3.01-.59,6.38-.51,10.13.07,3.74.53,7.77,1.36,12.07Z"/>
  <path d="M223.25,135.2c-.05-.39-.11-.89-.18-1.5-.07-.61-.15-1.2-.22-1.76-.07-.56-.16-1.23-.26-2.02h-.59l-8.37,2.49c-.25.39-.65.59-1.21.59h-1.28c-.69,0-1.38-.31-2.09-.92-.71-.61-1.06-1.28-1.06-2.02,0-.54.18-1.06.55-1.58.37-.51.82-.87,1.36-1.06l11.81-3.74c.15-.54.43-1.09.84-1.65.42-.56.97-.84,1.65-.84s1.26.17,1.72.51c.46.34.99.61,1.58.81.44-.05,1.17-.19,2.2-.44,1.03-.24,2.12-.5,3.27-.77,1.15-.27,2.24-.53,3.27-.77,1.03-.24,1.74-.42,2.13-.51.59-.1,1.03-.22,1.32-.37s.76-.22,1.39-.22c.83,0,1.69.25,2.57.73.88.49,1.32,1.22,1.32,2.2,0,.64-.22,1.19-.66,1.65-.44.47-.98.77-1.61.92l-13.94,3.52v.66c0,1.52.13,3.01.4,4.48.27,1.47.35,2.94.26,4.4l2.49,22.67v1.61c0,.59-.01,1.19-.04,1.8-.03.61-.12,1.16-.29,1.65-.17.49-.45.89-.84,1.21-.39.32-.98.48-1.76.48-.59,0-1.21-.24-1.87-.73-.66-.49-1.02-1.08-1.06-1.76l-2.79-29.13v-.59Z"/>
  <path d="M247.83,146.65c.29-1.32.76-2.56,1.39-3.71.64-1.15,1.33-2.25,2.09-3.3.76-1.05,1.55-2.09,2.38-3.12.83-1.03,1.59-2.1,2.27-3.23.1-.15.28-.45.55-.92.27-.46.55-.98.84-1.54.29-.56.57-1.11.84-1.65.27-.54.45-.93.55-1.17.24-.54.34-.88.29-1.03-.05-.15-.07-.46-.07-.95-1.96,0-3.73.38-5.32,1.14-1.59.76-3.19,1.68-4.81,2.75-.73.49-1.39,1.03-1.98,1.61s-1.35.88-2.27.88c-.73,0-1.52-.28-2.35-.84-.83-.56-1.25-1.28-1.25-2.16,0-.29.04-.48.11-.55.07-.07.26-.21.55-.4,1.42-1.12,2.81-2.16,4.18-3.12,1.37-.95,2.78-1.79,4.22-2.49,1.44-.71,2.96-1.27,4.55-1.69,1.59-.42,3.31-.62,5.17-.62,1.56,0,2.92.37,4.07,1.1,1.15.73,1.72,1.96,1.72,3.67,0,1.13-.2,2.27-.59,3.45-.39,1.17-.88,2.32-1.47,3.45-.59,1.13-1.24,2.2-1.94,3.23-.71,1.03-1.36,1.98-1.94,2.86-.39.59-.91,1.25-1.54,1.98-.64.73-1.25,1.5-1.83,2.31s-1.1,1.61-1.54,2.42c-.44.81-.66,1.53-.66,2.16,0,.39.17.69.51.88.34.2.51.49.51.88,0,.88-.27,1.5-.81,1.87-.54.37-1.2.55-1.98.55-1.27,0-2.34-.45-3.19-1.36-.86-.91-1.28-1.97-1.28-3.19v-.15ZM252.74,164.19c0-.68.29-1.34.88-1.98.59-.64,1.27-.95,2.05-.95.93,0,1.83.26,2.72.77s1.32,1.33,1.32,2.46c0,1.03-.32,1.72-.95,2.09-.64.37-1.37.55-2.2.55-.93,0-1.8-.23-2.6-.7-.81-.46-1.21-1.21-1.21-2.24Z"/>
</svg>