<?xml version="1.0" encoding="UTF-8"?>
<svg id="Ebene_1" xmlns="http://www.w3.org/2000/svg" version="1.1" viewBox="0 0 470 150">
  <!-- Generator: Adobe Illustrator 30.0.0, SVG Export Plug-In . SVG Version: 2.1.1 Build 123)  -->
  <path d="M27.95,77.36l-.51-.46c-.51,1.85-.81,3.71-.9,5.56s-.18,3.75-.25,5.68c0,.62-.02,1.66-.07,3.13-.04,1.47-.11,3.03-.19,4.69-.09,1.66-.15,3.24-.19,4.75-.04,1.51-.07,2.53-.07,3.07-.25.93-.81,1.74-1.67,2.43-.85.7-1.84,1.04-2.94,1.04-.43,0-.96-.06-1.6-.17s-1.28-.27-1.92-.46-1.24-.44-1.79-.75c-.55-.31-.87-.66-.96-1.04l-8.07-25.6L.92,58.26c-.09-.08-.25-.35-.51-.81s-.51-.98-.77-1.56-.5-1.14-.71-1.68-.32-.96-.32-1.27c0-1.08.58-1.95,1.73-2.61,1.15-.66,2.2-.98,3.14-.98,3.16,0,5.17,1.2,6.02,3.59l7.05,23.05c.43-.15.71-.58.83-1.27s.19-1.12.19-1.27c0-.08.07-.46.19-1.16s.36-1.91.71-3.65.83-4.11,1.47-7.12,1.52-6.87,2.62-11.58c.69-.77,1.49-1.29,2.43-1.56s2-.41,3.21-.41c1.11,0,1.99.16,2.62.46.64.31,1.08,1,1.35,2.09l8.72,33.13c.17.39.34.81.51,1.27.17.46.34.89.51,1.27.34-2.55.64-4.81.9-6.78s.51-3.9.77-5.79c.25-1.89.51-3.9.77-6.02.25-2.12.6-4.58,1.03-7.36s.94-6.06,1.54-9.85c.6-3.78,1.33-8.3,2.18-13.55.25-1.54,1.01-2.51,2.25-2.9,1.24-.39,2.62-.58,4.17-.58.09,0,.28.06.58.17.3.12.49.21.58.29.17.08.51.16,1.03.23.51.08.85.16,1.03.23.34.7.64,1.29.9,1.8.25.5.39,1.06.39,1.68-.18-.77-.48-.42-.9,1.04-.43,1.47-.96,3.86-1.6,7.18s-1.33,7.43-2.05,12.34c-.73,4.91-1.43,10.43-2.11,16.57s-1.31,12.78-1.86,19.93c-.55,7.14-1.01,14.54-1.35,22.18-.25,0-.69-.04-1.28-.12s-1.22-.19-1.86-.35c-.64-.15-1.22-.35-1.73-.58s-.85-.54-1.03-.93l-16.27-37.65h0Z"/>
  <path d="M79.84,87.2h-.39c0,3.17.07,6.28.19,9.33.13,3.05.19,6.2.19,9.44,0,.93-.02,1.83-.07,2.72s-.19,1.7-.45,2.43c-.25.73-.71,1.31-1.35,1.74s-1.6.64-2.89.64c-2.39,0-4.06-1.12-5-3.36-.43-3.63-.69-7.2-.77-10.72-.09-3.51-.34-7.12-.77-10.83-.18-1.08-.66-2.12-1.47-3.13-.81-1-1.22-1.97-1.22-2.9,0-.7.28-1.27.83-1.74.55-.46.83-1.12.83-1.97,0-6.02-.19-11.99-.58-17.9-.39-5.91-.58-11.83-.58-17.78v-1.97c.6-.77,1.19-1.23,1.79-1.39.6-.15,1.4-.23,2.43-.23,2.48,0,4.06.68,4.74,2.03s1.06,2.99,1.15,4.92l1.15,30.82c.09.23.23.6.45,1.1.21.5.53.75.96.75.6,0,1.7-.13,3.33-.41,1.63-.27,3.33-.58,5.12-.93s3.42-.73,4.87-1.16c1.45-.42,2.31-.83,2.57-1.22,0-.54.02-1.51.07-2.9s.07-2.35.07-2.9c0-3.24-.04-6.45-.13-9.62-.09-3.17-.25-6.37-.51-9.62,0-.54-.13-1.83-.39-3.88-.25-2.05-.51-4.27-.77-6.66-.25-2.39-.5-4.61-.71-6.66s-.32-3.34-.32-3.88c-.09-.08-.13-.33-.13-.75v-.87c0-1,.41-1.74,1.22-2.2.81-.46,1.68-.7,2.62-.7,2.05,0,3.56.58,4.55,1.74s1.68,2.59,2.11,4.29c.09.85.21,2.28.39,4.29.17,2.01.39,4.17.64,6.49s.49,4.5.71,6.55c.21,2.05.36,3.46.45,4.23v1.85c0,.39.07,1.14.19,2.26.13,1.12.23,1.87.32,2.26v47.5c.43,1.31.71,2.39.83,3.24.13.85.19,1.85.19,3.01,0,.93-.28,1.91-.83,2.95-.55,1.04-1.52,1.56-2.89,1.56-1.19,0-2.29-.27-3.26-.81-.98-.54-1.84-1.24-2.57-2.09-.73-.85-1.31-1.8-1.73-2.84-.43-1.04-.64-2.1-.64-3.19v-23.86l-14.61,2.9.07.03Z"/>
  <path d="M139.03,117.67c.09-.39.19-1.12.32-2.2.13-1.08.3-2.22.51-3.42s.41-2.32.58-3.36c.17-1.04.3-1.8.39-2.26.43-3.48.96-6.93,1.6-10.37s.96-6.89.96-10.37v-1.74l-2.05-.93c-.34-.15-1.19-.66-2.57-1.51s-2.89-1.81-4.55-2.9c-1.67-1.08-3.31-2.18-4.93-3.3s-2.86-2.03-3.72-2.72c-.51-.31-1.35-.91-2.5-1.8s-2.34-1.85-3.58-2.9c-1.24-1.04-2.41-2.05-3.53-3.01-1.11-.96-1.88-1.64-2.31-2.03-.69-.62-1.33-1.33-1.92-2.14-.6-.81-.9-1.64-.9-2.49,0-1.31.55-2.26,1.67-2.84,1.11-.58,2.31-.87,3.58-.87.85,0,1.75.1,2.69.29.94.19,1.75.6,2.43,1.22,3.24,3.24,6.88,6.49,10.89,9.73s8.12,6.02,12.3,8.34l.51-1.51,5.39-31.28c.17-.85.71-1.39,1.6-1.62s1.73-.35,2.5-.35c2.22,0,3.9.48,5.07,1.45,1.15.97,1.73,2.57,1.73,4.81v.23c0,.08-.07.27-.19.58-.13.31-.25.66-.39,1.04-.13.39-.23.75-.32,1.1-.09.35-.13.56-.13.64-.25.93-.6,2.72-1.03,5.39-.43,2.66-.9,5.83-1.4,9.5s-1.07,7.7-1.67,12.11c-.6,4.4-1.19,8.82-1.79,13.26s-1.19,8.73-1.79,12.86c-.6,4.13-1.15,7.78-1.67,10.95.09.77.14,1.66.19,2.66s-.11,1.97-.45,2.9-.87,1.7-1.6,2.32-1.73.93-3.01.93c-1.63,0-3.05-.39-4.29-1.16-1.24-.77-2.11-1.85-2.62-3.24h.01Z"/>
  <path d="M219.88,102.5c0-4.71.11-9.44.32-14.19.21-4.75.45-9.5.71-14.25s.45-9.5.58-14.25.11-9.48-.07-14.19c.25-.85.73-1.49,1.4-1.91.69-.42,1.49-.64,2.43-.64,1.79,0,3.16.29,4.1.87.94.58,1.63,1.37,2.05,2.37.43,1,.69,2.12.77,3.36s.17,2.47.25,3.71c1.03,1.7,2.25,3.34,3.65,4.92,1.4,1.58,2.67,3.19,3.78,4.81,0,.08.07.25.19.52.13.27.23.41.32.41.51.7,1.17,1.6,1.99,2.72.81,1.12,1.6,2.2,2.37,3.24s1.7,2.34,2.82,3.88l.51.58,7.43,9.73c.34.31.64.46.9.46h.25c-1.11-8.19-2.01-16.55-2.69-25.08-.69-8.53-1.03-16.97-1.03-25.31v-5.79c.69-1,1.84-1.51,3.46-1.51s2.82.35,3.58,1.04,1.28,1.56,1.54,2.61.39,2.16.39,3.36.04,2.3.13,3.3c0,.08.04.21.13.41.09.19.19.62.32,1.27.13.66.25,1.66.39,3.01.13,1.35.3,3.23.51,5.62s.43,5.41.64,9.04.49,8.07.83,13.32v2.09l4.36,25.83c.09.62.44,1.56,1.08,2.84s.96,2.26.96,2.95c0,1.62-.51,2.94-1.54,3.94s-2.48,1.51-4.36,1.51c-.25,0-.6-.1-1.03-.29s-.85-.41-1.28-.64c-.43-.23-.83-.48-1.22-.75s-.66-.48-.83-.64l-20.63-26.53c-.09,0-.17-.13-.25-.41-.09-.27-.17-.48-.25-.64-.51-.7-1.19-1.56-2.05-2.61-.85-1.04-1.67-2.09-2.43-3.13s-1.45-1.95-2.05-2.72c-.6-.77-.9-1.2-.9-1.27l-.64-.46c-.43,7.34-.77,14.73-1.03,22.18-.25,7.45-.25,14.89,0,22.3-.17.93-.71,1.74-1.6,2.43s-1.81,1.04-2.75,1.04c-1.71,0-3.05-.41-4.04-1.22s-1.81-1.87-2.5-3.19v-10.08.03Z"/>
  <path d="M276.78,96.47c.09-.46.09-1.7,0-3.71s-.11-4.5-.07-7.47c.04-2.97.13-6.24.25-9.79.13-3.55.43-7.14.9-10.77.46-3.63,1.15-7.12,2.05-10.48.9-3.36,2.07-6.27,3.53-8.75.51-2.09,1.75-3.53,3.72-4.34s4.74-1.29,8.33-1.45c2.31,0,4.27.54,5.9,1.62,1.63,1.08,3.01,2.41,4.17,4,1.15,1.58,2.16,3.3,3.01,5.16.85,1.85,1.63,3.52,2.31,4.98v.58c.6,1.55,1.04,3.84,1.35,6.89.3,3.05.51,6.26.64,9.62s.19,6.58.19,9.67v7.07c0,2.32-.34,5.08-1.03,8.28-.69,3.21-1.77,6.24-3.26,9.09-1.49,2.86-3.44,5.29-5.83,7.3s-5.25,3.01-8.58,3.01c-2.82,0-5.32-.66-7.5-1.97s-4.01-2.99-5.51-5.04c-1.49-2.05-2.62-4.27-3.4-6.66-.77-2.39-1.15-4.67-1.15-6.84h-.01ZM289.2,104.23c.17.85.66,1.72,1.47,2.61.81.89,1.77,1.33,2.89,1.33h1.03c3.58-2.93,5.94-6.31,7.05-10.14,1.11-3.82,1.67-7.86,1.67-12.11,0-1-.04-2.55-.13-4.63-.09-2.09-.23-4.42-.45-7.01-.21-2.59-.5-5.31-.83-8.17-.34-2.86-.77-5.54-1.28-8.05s-1.11-4.69-1.79-6.55c-.69-1.85-1.49-3.13-2.43-3.82-.09.08-.19.23-.32.46s-.19.39-.19.46c-1.79,2.01-3.42,4.75-4.87,8.23s-2.54,7.59-3.26,12.34c-.73,4.75-1.03,10.08-.9,15.99.13,5.91.92,12.26,2.37,19.06h-.01Z"/>
  <path d="M344.17,66.12c-.09-.62-.19-1.41-.32-2.37-.13-.96-.25-1.89-.39-2.78s-.28-1.95-.45-3.19h-1.03l-14.61,3.94c-.43.62-1.13.93-2.11.93h-2.25c-1.19,0-2.41-.48-3.65-1.45-1.24-.96-1.86-2.03-1.86-3.19,0-.85.32-1.68.96-2.49s1.43-1.37,2.37-1.68l20.63-5.91c.25-.85.74-1.72,1.47-2.61.72-.89,1.68-1.33,2.89-1.33s2.2.27,3.01.81,1.73.97,2.75,1.27c.77-.08,2.05-.31,3.85-.7,1.79-.39,3.69-.79,5.71-1.22,2-.42,3.9-.83,5.71-1.22,1.79-.39,3.03-.66,3.72-.81,1.03-.15,1.79-.35,2.31-.58s1.33-.35,2.43-.35c1.45,0,2.94.39,4.48,1.16,1.54.77,2.31,1.93,2.31,3.48,0,1-.39,1.87-1.15,2.61-.77.73-1.71,1.22-2.82,1.45l-24.34,5.56v1.04c0,2.39.23,4.75.71,7.07.46,2.32.62,4.63.45,6.95l4.36,35.8v2.55c0,.93-.02,1.87-.07,2.84-.04.97-.21,1.83-.51,2.61-.3.77-.8,1.41-1.47,1.91-.69.5-1.71.75-3.07.75-1.03,0-2.11-.39-3.26-1.16-1.15-.77-1.77-1.7-1.86-2.78l-4.87-45.99v-.93h-.02Z"/>
  <path d="M439.63,84.19c.51-2.09,1.33-4.03,2.43-5.85,1.11-1.81,2.32-3.55,3.65-5.21,1.33-1.66,2.71-3.3,4.17-4.92,1.45-1.62,2.78-3.32,3.97-5.1.17-.23.49-.71.96-1.45.46-.73.96-1.54,1.47-2.43s1.01-1.76,1.47-2.61c.46-.85.79-1.47.96-1.85.43-.85.6-1.39.51-1.62-.09-.23-.13-.73-.13-1.51-3.42,0-6.51.6-9.29,1.8-2.78,1.2-5.57,2.65-8.39,4.34-1.28.77-2.43,1.62-3.46,2.55s-2.36,1.39-3.97,1.39c-1.28,0-2.64-.44-4.1-1.33-1.45-.89-2.18-2.03-2.18-3.42,0-.46.07-.75.19-.87s.45-.33.96-.64c2.48-1.78,4.91-3.42,7.3-4.92,2.39-1.51,4.84-2.82,7.37-3.94s5.17-2.01,7.94-2.66c2.78-.66,5.78-.98,9.04-.98,2.73,0,5.1.58,7.11,1.74,2,1.16,3.01,3.09,3.01,5.79,0,1.78-.34,3.59-1.03,5.44s-1.54,3.67-2.57,5.44c-1.03,1.78-2.16,3.48-3.4,5.1-1.24,1.62-2.37,3.13-3.4,4.52-.69.93-1.58,1.97-2.69,3.13-1.11,1.16-2.18,2.37-3.21,3.65s-1.92,2.55-2.69,3.82-1.15,2.41-1.15,3.42c0,.62.3,1.08.9,1.39s.9.77.9,1.39c0,1.39-.48,2.37-1.4,2.95-.94.58-2.09.87-3.46.87-2.22,0-4.08-.71-5.57-2.14s-2.25-3.11-2.25-5.04v-.23h.03ZM448.21,111.88c0-1.08.51-2.12,1.54-3.13,1.03-1,2.22-1.51,3.58-1.51,1.63,0,3.21.41,4.74,1.22s2.31,2.11,2.31,3.88c0,1.62-.55,2.72-1.67,3.3-1.11.58-2.39.87-3.85.87-1.63,0-3.14-.37-4.55-1.1-1.4-.73-2.11-1.91-2.11-3.53Z"/>
</svg>