<?xml version="1.0" encoding="UTF-8"?>
<svg id="Ebene_1" xmlns="http://www.w3.org/2000/svg" version="1.1" viewBox="0 0 426.79 150">
  <!-- Generator: Adobe Illustrator 30.0.0, SVG Export Plug-In . SVG Version: 2.1.1 Build 123)  -->
  <path d="M26.53,77.36l-.46-.46c-.46,1.85-.73,3.71-.81,5.56-.08,1.85-.16,3.75-.23,5.68,0,.62-.02,1.66-.06,3.13-.04,1.47-.1,3.03-.17,4.69-.08,1.66-.14,3.24-.17,4.75-.04,1.51-.06,2.53-.06,3.07-.23.93-.73,1.74-1.51,2.43-.77.7-1.66,1.04-2.66,1.04-.39,0-.87-.06-1.45-.17s-1.16-.27-1.74-.46c-.58-.19-1.12-.44-1.62-.75-.5-.31-.79-.66-.87-1.04l-7.3-25.6-5.33-20.97c-.08-.08-.23-.35-.46-.81s-.46-.98-.7-1.56-.45-1.14-.64-1.68c-.19-.54-.29-.96-.29-1.27,0-1.08.52-1.95,1.56-2.61,1.04-.66,1.99-.98,2.84-.98,2.86,0,4.67,1.2,5.44,3.59l6.37,23.05c.39-.15.64-.58.75-1.27s.17-1.12.17-1.27c0-.08.06-.46.17-1.16s.33-1.91.64-3.65c.31-1.74.75-4.11,1.33-7.12s1.37-6.87,2.37-11.58c.62-.77,1.35-1.29,2.2-1.56.85-.27,1.81-.41,2.9-.41,1,0,1.8.16,2.37.46.58.31.98,1,1.22,2.09l7.88,33.13c.15.39.31.81.46,1.27.15.46.31.89.46,1.27.31-2.55.58-4.81.81-6.78s.46-3.9.7-5.79c.23-1.89.46-3.9.7-6.02.23-2.12.54-4.58.93-7.36.39-2.78.85-6.06,1.39-9.85.54-3.78,1.2-8.3,1.97-13.55.23-1.54.91-2.51,2.03-2.9,1.12-.39,2.37-.58,3.77-.58.08,0,.25.06.52.17.27.12.44.21.52.29.15.08.46.16.93.23.46.08.77.16.93.23.31.7.58,1.29.81,1.8.23.5.35,1.06.35,1.68-.16-.77-.43-.42-.81,1.04-.39,1.47-.87,3.86-1.45,7.18-.58,3.32-1.2,7.43-1.85,12.34-.66,4.91-1.29,10.43-1.91,16.57-.62,6.14-1.18,12.78-1.68,19.93-.5,7.14-.91,14.54-1.22,22.18-.23,0-.62-.04-1.16-.12-.54-.08-1.1-.19-1.68-.35-.58-.15-1.1-.35-1.56-.58s-.77-.54-.93-.93l-14.71-37.65Z"/>
  <path d="M73.45,87.2h-.35c0,3.17.06,6.28.17,9.33.12,3.05.17,6.2.17,9.44,0,.93-.02,1.83-.06,2.72-.04.89-.17,1.7-.41,2.43-.23.73-.64,1.31-1.22,1.74-.58.43-1.45.64-2.61.64-2.16,0-3.67-1.12-4.52-3.36-.39-3.63-.62-7.2-.7-10.72-.08-3.51-.31-7.12-.7-10.83-.16-1.08-.6-2.12-1.33-3.13-.73-1-1.1-1.97-1.1-2.9,0-.7.25-1.27.75-1.74.5-.46.75-1.12.75-1.97,0-6.02-.17-11.99-.52-17.9s-.52-11.83-.52-17.78v-1.97c.54-.77,1.08-1.23,1.62-1.39.54-.15,1.27-.23,2.2-.23,2.24,0,3.67.68,4.29,2.03.62,1.35.96,2.99,1.04,4.92l1.04,30.82c.08.23.21.6.41,1.1.19.5.48.75.87.75.54,0,1.54-.13,3.01-.41,1.47-.27,3.01-.58,4.63-.93s3.09-.73,4.4-1.16c1.31-.42,2.09-.83,2.32-1.22,0-.54.02-1.51.06-2.9.04-1.39.06-2.35.06-2.9,0-3.24-.04-6.45-.12-9.62-.08-3.17-.23-6.37-.46-9.62,0-.54-.12-1.83-.35-3.88-.23-2.05-.46-4.27-.7-6.66-.23-2.39-.45-4.61-.64-6.66-.19-2.05-.29-3.34-.29-3.88-.08-.08-.12-.33-.12-.75v-.87c0-1,.37-1.74,1.1-2.2.73-.46,1.52-.7,2.37-.7,1.85,0,3.22.58,4.11,1.74.89,1.16,1.52,2.59,1.91,4.29.08.85.19,2.28.35,4.29.15,2.01.35,4.17.58,6.49s.44,4.5.64,6.55c.19,2.05.33,3.46.41,4.23v1.85c0,.39.06,1.14.17,2.26.12,1.12.21,1.87.29,2.26v47.5c.39,1.31.64,2.39.75,3.24.12.85.17,1.85.17,3.01,0,.93-.25,1.91-.75,2.95-.5,1.04-1.37,1.56-2.61,1.56-1.08,0-2.07-.27-2.95-.81-.89-.54-1.66-1.24-2.32-2.09-.66-.85-1.18-1.8-1.56-2.84-.39-1.04-.58-2.1-.58-3.19v-23.86l-13.21,2.9Z"/>
  <path d="M126.97,117.67c.08-.39.17-1.12.29-2.2.12-1.08.27-2.22.46-3.42.19-1.2.37-2.32.52-3.36.15-1.04.27-1.8.35-2.26.39-3.48.87-6.93,1.45-10.37.58-3.44.87-6.89.87-10.37v-1.74l-1.85-.93c-.31-.15-1.08-.66-2.32-1.51-1.24-.85-2.61-1.81-4.11-2.9-1.51-1.08-2.99-2.18-4.46-3.3-1.47-1.12-2.59-2.03-3.36-2.72-.46-.31-1.22-.91-2.26-1.8-1.04-.89-2.12-1.85-3.24-2.9-1.12-1.04-2.18-2.05-3.19-3.01-1-.96-1.7-1.64-2.09-2.03-.62-.62-1.2-1.33-1.74-2.14-.54-.81-.81-1.64-.81-2.49,0-1.31.5-2.26,1.51-2.84,1-.58,2.09-.87,3.24-.87.77,0,1.58.1,2.43.29.85.19,1.58.6,2.2,1.22,2.93,3.24,6.22,6.49,9.85,9.73,3.63,3.24,7.34,6.02,11.12,8.34l.46-1.51,4.87-31.28c.15-.85.64-1.39,1.45-1.62s1.56-.35,2.26-.35c2.01,0,3.53.48,4.58,1.45,1.04.97,1.56,2.57,1.56,4.81v.23c0,.08-.06.27-.17.58-.12.31-.23.66-.35,1.04-.12.39-.21.75-.29,1.1-.08.35-.12.56-.12.64-.23.93-.54,2.72-.93,5.39-.39,2.66-.81,5.83-1.27,9.5-.46,3.67-.97,7.7-1.51,12.11-.54,4.4-1.08,8.82-1.62,13.26-.54,4.44-1.08,8.73-1.62,12.86-.54,4.13-1.04,7.78-1.51,10.95.08.77.13,1.66.17,2.66.04,1-.1,1.97-.41,2.9-.31.93-.79,1.7-1.45,2.32-.66.62-1.56.93-2.72.93-1.47,0-2.76-.39-3.88-1.16-1.12-.77-1.91-1.85-2.37-3.24Z"/>
  <path d="M200.07,102.5c0-4.71.1-9.44.29-14.19.19-4.75.41-9.5.64-14.25s.41-9.5.52-14.25.1-9.48-.06-14.19c.23-.85.66-1.49,1.27-1.91.62-.42,1.35-.64,2.2-.64,1.62,0,2.86.29,3.71.87.85.58,1.47,1.37,1.85,2.37.39,1,.62,2.12.7,3.36.08,1.24.15,2.47.23,3.71.93,1.7,2.03,3.34,3.3,4.92,1.27,1.58,2.41,3.19,3.42,4.81,0,.08.06.25.17.52.12.27.21.41.29.41.46.7,1.06,1.6,1.8,2.72.73,1.12,1.45,2.2,2.14,3.24s1.54,2.34,2.55,3.88l.46.58,6.72,9.73c.31.31.58.46.81.46h.23c-1-8.19-1.82-16.55-2.43-25.08-.62-8.53-.93-16.97-.93-25.31v-5.79c.62-1,1.66-1.51,3.13-1.51s2.55.35,3.24,1.04,1.16,1.56,1.39,2.61.35,2.16.35,3.36.04,2.3.12,3.3c0,.08.04.21.12.41.08.19.17.62.29,1.27.12.66.23,1.66.35,3.01.12,1.35.27,3.23.46,5.62.19,2.39.39,5.41.58,9.04.19,3.63.44,8.07.75,13.32v2.09l3.94,25.83c.08.62.4,1.56.98,2.84s.87,2.26.87,2.95c0,1.62-.46,2.94-1.39,3.94-.93,1-2.24,1.51-3.94,1.51-.23,0-.54-.1-.93-.29-.39-.19-.77-.41-1.16-.64-.39-.23-.75-.48-1.1-.75-.35-.27-.6-.48-.75-.64l-18.65-26.53c-.08,0-.15-.13-.23-.41-.08-.27-.15-.48-.23-.64-.46-.7-1.08-1.56-1.85-2.61-.77-1.04-1.51-2.09-2.2-3.13s-1.31-1.95-1.85-2.72c-.54-.77-.81-1.2-.81-1.27l-.58-.46c-.39,7.34-.7,14.73-.93,22.18-.23,7.45-.23,14.89,0,22.3-.15.93-.64,1.74-1.45,2.43s-1.64,1.04-2.49,1.04c-1.55,0-2.76-.41-3.65-1.22-.89-.81-1.64-1.87-2.26-3.19v-10.08Z"/>
  <path d="M251.51,96.47c.08-.46.08-1.7,0-3.71-.08-2.01-.1-4.5-.06-7.47.04-2.97.12-6.24.23-9.79.12-3.55.39-7.14.81-10.77.42-3.63,1.04-7.12,1.85-10.48s1.87-6.27,3.19-8.75c.46-2.09,1.58-3.53,3.36-4.34,1.78-.81,4.29-1.29,7.53-1.45,2.09,0,3.86.54,5.33,1.62,1.47,1.08,2.72,2.41,3.77,4,1.04,1.58,1.95,3.3,2.72,5.16.77,1.85,1.47,3.52,2.09,4.98v.58c.54,1.55.94,3.84,1.22,6.89.27,3.05.46,6.26.58,9.62.12,3.36.17,6.58.17,9.67v7.07c0,2.32-.31,5.08-.93,8.28-.62,3.21-1.6,6.24-2.95,9.09-1.35,2.86-3.11,5.29-5.27,7.3-2.16,2.01-4.75,3.01-7.76,3.01-2.55,0-4.81-.66-6.78-1.97-1.97-1.31-3.63-2.99-4.98-5.04-1.35-2.05-2.37-4.27-3.07-6.66-.7-2.39-1.04-4.67-1.04-6.84ZM262.74,104.23c.15.85.6,1.72,1.33,2.61.73.89,1.6,1.33,2.61,1.33h.93c3.24-2.93,5.37-6.31,6.37-10.14,1-3.82,1.51-7.86,1.51-12.11,0-1-.04-2.55-.12-4.63-.08-2.09-.21-4.42-.41-7.01-.19-2.59-.45-5.31-.75-8.17-.31-2.86-.7-5.54-1.16-8.05-.46-2.51-1-4.69-1.62-6.55-.62-1.85-1.35-3.13-2.2-3.82-.08.08-.17.23-.29.46s-.17.39-.17.46c-1.62,2.01-3.09,4.75-4.4,8.23-1.31,3.48-2.3,7.59-2.95,12.34-.66,4.75-.93,10.08-.81,15.99s.83,12.26,2.14,19.06Z"/>
  <path d="M312.44,66.12c-.08-.62-.17-1.41-.29-2.37-.12-.96-.23-1.89-.35-2.78-.12-.89-.25-1.95-.41-3.19h-.93l-13.21,3.94c-.39.62-1.02.93-1.91.93h-2.03c-1.08,0-2.18-.48-3.3-1.45-1.12-.96-1.68-2.03-1.68-3.19,0-.85.29-1.68.87-2.49s1.29-1.37,2.14-1.68l18.65-5.91c.23-.85.67-1.72,1.33-2.61.65-.89,1.52-1.33,2.61-1.33s1.99.27,2.72.81c.73.54,1.56.97,2.49,1.27.7-.08,1.85-.31,3.48-.7,1.62-.39,3.34-.79,5.16-1.22,1.81-.42,3.53-.83,5.16-1.22,1.62-.39,2.74-.66,3.36-.81.93-.15,1.62-.35,2.09-.58s1.2-.35,2.2-.35c1.31,0,2.66.39,4.05,1.16,1.39.77,2.09,1.93,2.09,3.48,0,1-.35,1.87-1.04,2.61-.7.73-1.55,1.22-2.55,1.45l-22.01,5.56v1.04c0,2.39.21,4.75.64,7.07.42,2.32.56,4.63.41,6.95l3.94,35.8v2.55c0,.93-.02,1.87-.06,2.84-.04.97-.19,1.83-.46,2.61-.27.77-.72,1.41-1.33,1.91-.62.5-1.55.75-2.78.75-.93,0-1.91-.39-2.95-1.16-1.04-.77-1.6-1.7-1.68-2.78l-4.4-45.99v-.93Z"/>
  <path d="M398.75,84.19c.46-2.09,1.2-4.03,2.2-5.85,1-1.81,2.1-3.55,3.3-5.21,1.2-1.66,2.45-3.3,3.77-4.92,1.31-1.62,2.51-3.32,3.59-5.1.15-.23.44-.71.87-1.45.42-.73.87-1.54,1.33-2.43.46-.89.91-1.76,1.33-2.61.42-.85.71-1.47.87-1.85.39-.85.54-1.39.46-1.62-.08-.23-.12-.73-.12-1.51-3.09,0-5.89.6-8.4,1.8-2.51,1.2-5.04,2.65-7.59,4.34-1.16.77-2.2,1.62-3.13,2.55s-2.13,1.39-3.59,1.39c-1.16,0-2.39-.44-3.71-1.33-1.31-.89-1.97-2.03-1.97-3.42,0-.46.06-.75.17-.87s.41-.33.87-.64c2.24-1.78,4.44-3.42,6.6-4.92,2.16-1.51,4.38-2.82,6.66-3.94,2.28-1.12,4.67-2.01,7.18-2.66,2.51-.66,5.23-.98,8.17-.98,2.47,0,4.61.58,6.43,1.74,1.81,1.16,2.72,3.09,2.72,5.79,0,1.78-.31,3.59-.93,5.44-.62,1.85-1.39,3.67-2.32,5.44-.93,1.78-1.95,3.48-3.07,5.1-1.12,1.62-2.14,3.13-3.07,4.52-.62.93-1.43,1.97-2.43,3.13-1,1.16-1.97,2.37-2.9,3.65s-1.74,2.55-2.43,3.82-1.04,2.41-1.04,3.42c0,.62.27,1.08.81,1.39.54.31.81.77.81,1.39,0,1.39-.43,2.37-1.27,2.95-.85.58-1.89.87-3.13.87-2.01,0-3.69-.71-5.04-2.14-1.35-1.43-2.03-3.11-2.03-5.04v-.23ZM406.51,111.88c0-1.08.46-2.12,1.39-3.13.93-1,2.01-1.51,3.24-1.51,1.47,0,2.9.41,4.29,1.22s2.09,2.11,2.09,3.88c0,1.62-.5,2.72-1.51,3.3-1,.58-2.16.87-3.48.87-1.47,0-2.84-.37-4.11-1.1-1.27-.73-1.91-1.91-1.91-3.53Z"/>
</svg>